<svg width="17" height="17" viewBox="0 0 17 17" fill="none" xmlns="http://www.w3.org/2000/svg">
<path d="M14.3438 5.3125H2.65625C2.36285 5.3125 2.125 5.55035 2.125 5.84375V7.96875C2.125 8.26215 2.36285 8.5 2.65625 8.5H14.3438C14.6372 8.5 14.875 8.26215 14.875 7.96875V5.84375C14.875 5.55035 14.6372 5.3125 14.3438 5.3125Z" stroke="#3A84B4" stroke-linecap="round" stroke-linejoin="round"/>
<path d="M13.8125 8.5V13.2812C13.8125 13.4221 13.7565 13.5573 13.6569 13.6569C13.5573 13.7565 13.4221 13.8125 13.2812 13.8125H3.71875C3.57785 13.8125 3.44273 13.7565 3.3431 13.6569C3.24347 13.5573 3.1875 13.4221 3.1875 13.2812V8.5" stroke="#3A84B4" stroke-linecap="round" stroke-linejoin="round"/>
<path d="M8.5 5.3125V13.8125" stroke="#3A84B4" stroke-linecap="round" stroke-linejoin="round"/>
<path d="M11.5082 4.56209C10.7512 5.31248 8.5 5.31248 8.5 5.31248C8.5 5.31248 8.5 3.06131 9.25039 2.30428C9.5498 2.00487 9.95588 1.83667 10.3793 1.83667C10.8027 1.83667 11.2088 2.00487 11.5082 2.30428C11.8076 2.60368 11.9758 3.00976 11.9758 3.43318C11.9758 3.85661 11.8076 4.26269 11.5082 4.56209V4.56209Z" stroke="#3A84B4" stroke-linecap="round" stroke-linejoin="round"/>
<path d="M5.49178 4.56209C6.24881 5.31248 8.49998 5.31248 8.49998 5.31248C8.49998 5.31248 8.49998 3.06131 7.74959 2.30428C7.45019 2.00487 7.04411 1.83667 6.62068 1.83667C6.19726 1.83667 5.79118 2.00487 5.49178 2.30428C5.19237 2.60368 5.02417 3.00976 5.02417 3.43318C5.02417 3.85661 5.19237 4.26269 5.49178 4.56209V4.56209Z" stroke="#3A84B4" stroke-linecap="round" stroke-linejoin="round"/>
</svg>
